<?xml version="1.0" encoding="utf-8"?>
<!-- Generator: Adobe Illustrator 24.3.0, SVG Export Plug-In . SVG Version: 6.00 Build 0)  -->
<svg version="1.1" id="Layer_1" xmlns="http://www.w3.org/2000/svg" xmlns:xlink="http://www.w3.org/1999/xlink" x="0px" y="0px"
	 viewBox="0 0 1080 1080" style="enable-background:new 0 0 1080 1080;" xml:space="preserve">
<style type="text/css">
	.st0{fill:#6A3979;stroke:#CAA4CD;stroke-width:14;stroke-miterlimit:10;}
	.st1{display:none;}
	.st2{display:inline;}
	.st3{fill:#FFFFFF;}
	.st4{display:inline;fill:#FFFFFF;}
	.st5{display:inline;fill:#FFFFFF;stroke:#FFFFFF;stroke-width:11;stroke-miterlimit:10;}
	.st6{display:inline;fill:#FFFFFF;stroke:#FFFFFF;stroke-width:12;stroke-miterlimit:10;}
	.st7{font-family:'AlfredoHeavy';}
	.st8{font-size:114px;}
	.st9{letter-spacing:10;}
</style>
<circle class="st0" cx="540" cy="540" r="497.8"/>
<g id="XMLID_190_" class="st1">
	<g id="XMLID_13_" class="st2">
		<path id="XMLID_163_" class="st3" d="M641.7,426.8c-2.7,0-5.4-0.7-7.7-2.1c-126.2-75.5-123.1-148.5-115.9-176.4
			c8.1-31.3,32.9-53.9,60.4-54.8c30.2-1.2,50.6,11.3,63.3,24.8c12.6-13.5,32.9-26,63.3-24.8l0,0c27.5,0.9,52.3,23.5,60.4,54.8
			c7.2,27.9,10.3,100.9-115.9,176.4C647.1,426.1,644.4,426.8,641.7,426.8z M582.1,223.5c-0.8,0-1.7,0-2.5,0
			c-12,0.4-26.9,11.6-32.3,32.2c-4.2,16.3-9.4,73.4,94.5,138.3c103.8-64.9,98.7-122,94.5-138.3c-5.3-20.6-20.3-31.8-32.3-32.2l0,0
			c-37.1-1.3-47.9,26.9-48,27.2c-2.1,6-7.8,10.1-14.2,10.1c-6.4,0-12.1-4-14.2-10.1C626.5,248,616.3,223.5,582.1,223.5z"/>
	</g>
	<g id="XMLID_12_" class="st2">
		<path id="XMLID_162_" class="st3" d="M585.3,324.8c-3,0-6-1.4-8-4c-15.8-20.8-21.1-40.5-15.8-58.7c5.1-17.5,20.5-24.5,28.8-25.9
			c5.5-0.9,10.6,2.8,11.5,8.2c0.9,5.4-2.7,10.6-8.1,11.5c-0.6,0.1-10.2,2.2-13,11.8c-3.5,11.9,0.6,25.3,12.5,40.9
			c3.4,4.4,2.5,10.7-1.9,14.1C589.5,324.1,587.4,324.8,585.3,324.8z"/>
	</g>
	<g id="XMLID_11_" class="st2">
		<path id="XMLID_161_" class="st3" d="M427.4,848.8C303.1,848.8,202,747.7,202,623.3c0-124.3,101.1-225.5,225.5-225.5
			c41.8,0,82.7,11.5,118.1,33.4c9.4,5.8,12.4,18.2,6.6,27.6c-5.8,9.5-18.2,12.4-27.6,6.6c-29.1-17.9-62.6-27.4-97-27.4
			c-102.2,0-185.3,83.1-185.3,185.3c0,102.2,83.1,185.3,185.3,185.3c102.2,0,185.3-83.1,185.3-185.3c0-32.2-8.4-63.9-24.3-91.7
			c-5.5-9.6-2.1-21.9,7.5-27.4c9.6-5.5,21.9-2.2,27.4,7.5c19.3,33.9,29.5,72.5,29.5,111.7C652.9,747.7,551.8,848.8,427.4,848.8z"/>
	</g>
	<g id="XMLID_10_" class="st2">
		<path id="XMLID_160_" class="st3" d="M659.3,886.6c-19.8,0-39.4-2.7-58.4-7.9c-10.7-3-17-14-14-24.7c3-10.7,14-17,24.7-14
			c15.4,4.3,31.5,6.4,47.7,6.4c98.5,0,178.6-80.1,178.6-178.6s-80.1-178.6-178.6-178.6c-98.5,0-178.6,80.1-178.6,178.6
			c0,25.5,5.2,50.1,15.6,73.1c4.5,10.1,0,22-10.1,26.5c-10.1,4.5-22,0-26.5-10.1c-12.7-28.2-19.1-58.4-19.1-89.5
			c0-120.6,98.1-218.8,218.8-218.8c120.6,0,218.8,98.1,218.8,218.8C878,788.5,779.9,886.6,659.3,886.6z"/>
	</g>
</g>
<g id="XMLID_2_">
	<path id="XMLID_176_" class="st3" d="M770,850.7H310c-41.5,0-75.2-33.7-75.2-75.2v-442c0-41.5,33.7-75.2,75.2-75.2H770
		c41.5,0,75.2,33.7,75.2,75.2v442C845.2,817,811.4,850.7,770,850.7z M310,298.6c-19.3,0-35,15.7-35,35v442c0,19.3,15.7,35,35,35H770
		c19.3,0,35-15.7,35-35v-442c0-19.3-15.7-35-35-35H310z"/>
</g>
<g id="XMLID_8_">
	<path id="XMLID_173_" class="st3" d="M540,771.8c-2.7,0-5.5-0.7-7.9-2.2c-136.9-81.9-133.6-161-125.9-191.1
		c8.7-33.7,35.4-58,64.9-59c32.8-1.1,55.4,12.6,68.9,27.5c13.5-14.9,36-28.5,68.9-27.5l0,0c29.5,1,56.2,25.3,64.9,59
		c7.8,30.2,11.1,109.2-125.9,191.1C545.5,771.1,542.7,771.8,540,771.8z M475,550.3c-0.9,0-1.9,0-2.8,0c-13.4,0.5-30.1,12.9-36,35.8
		c-4.6,17.9-10.3,80.8,103.9,152.1C654.2,667,648.5,604.1,643.9,586.2c-5.9-22.9-22.6-35.4-36-35.8l0,0
		c-40.4-1.4-52.1,27.1-53.3,30.4c-2.3,6.1-8,10.4-14.7,10.1c-6.5-0.1-12.3-4.1-14.5-10.3C524.3,577.6,513,550.3,475,550.3z"/>
</g>
<g id="XMLID_3_">
	<path id="XMLID_166_" class="st3" d="M475.5,662.5c-3.5,0-7-1.6-9.2-4.6c-18.1-23.8-24.1-46.4-18.1-67.2
		c5.9-20.1,23.6-28.1,33.1-29.7c6.3-1.1,12.3,3.2,13.3,9.5c1,6.3-3.2,12.2-9.4,13.3c-0.7,0.1-11.6,2.5-14.8,13.4
		c-4,13.6,0.7,28.9,14.3,46.7c3.9,5.1,2.9,12.4-2.2,16.2C480.4,661.7,477.9,662.5,475.5,662.5z"/>
</g>
<path id="XMLID_6_" class="st3" d="M401.7,327.6h-21.6c-10.3,0-18.6-8.3-18.6-18.6v-61.1c0-10.3,8.3-18.6,18.6-18.6h21.6
	c10.3,0,18.6,8.3,18.6,18.6V309C420.4,319.3,412,327.6,401.7,327.6z"/>
<path id="XMLID_9_" class="st3" d="M699.9,327.6h-21.6c-10.3,0-18.6-8.3-18.6-18.6v-61.1c0-10.3,8.3-18.6,18.6-18.6h21.6
	c10.3,0,18.6,8.3,18.6,18.6V309C718.5,319.3,710.2,327.6,699.9,327.6z"/>
<g id="XMLID_180_" class="st1">
	<path id="XMLID_66_" class="st4" d="M1739.4,202.8c-62.5-2.2-79.8,47.4-79.8,47.4s-17.3-49.5-79.8-47.4
		c-62.5,2.2-129.1,133.6,79.8,258.5C1868.5,336.3,1801.9,204.9,1739.4,202.8z"/>
	<g id="XMLID_54_" class="st2">
		<path id="XMLID_85_" class="st3" d="M1959.5,694.8h-599.7c-12,0-21.8-9.8-21.8-21.8V362.7c0-8.2,4.6-15.7,11.9-19.4
			c7.3-3.7,16-3.1,22.7,1.7l287.1,207.1L1946.7,345c6.6-4.8,15.4-5.4,22.7-1.7c7.3,3.7,11.9,11.2,11.9,19.4v310.4
			C1981.3,685.1,1971.5,694.8,1959.5,694.8z M1381.6,651.3h556.1v-246l-265.3,191.4c-7.6,5.5-17.9,5.5-25.5,0l-265.3-191.4V651.3z"
			/>
	</g>
	<polygon id="XMLID_58_" class="st4" points="1805.8,74.6 1893.5,175.2 1805.8,175.2 	"/>
	<g id="XMLID_68_" class="st2">
		<path id="XMLID_82_" class="st3" d="M1659.6,600.8c-4.5,0-8.9-1.4-12.7-4.1L1413,427.9c-5.7-4.1-9-10.7-9-17.7V74.6
			c0-12,9.8-21.8,21.8-21.8h380.1c6.3,0,12.3,2.7,16.4,7.5l87.7,100.6c3.5,4,5.4,9.1,5.4,14.3v235c0,7-3.4,13.6-9,17.7l-233.9,168.8
			C1668.6,599.4,1664.1,600.8,1659.6,600.8z M1447.5,399.1l212.1,153.1l212.1-153.1V183.4l-75.8-87h-348.4V399.1z"/>
	</g>
	<g id="XMLID_65_" class="st2">
		<g id="XMLID_67_">
			<path id="XMLID_79_" class="st3" d="M1716.2,560.1c-6.8,0-13.4-3.1-17.7-9c-7-9.8-4.8-23.4,4.9-30.4l168.4-121.5v-90.2
				c0-8.4,4.8-16.1,12.4-19.7c7.6-3.6,16.6-2.5,23.1,2.8l65.9,53.8c5.2,4.3,8.2,10.8,8,17.5c-0.2,6.8-3.5,13.1-9,17l-243.3,175.6
				C1725,558.7,1720.6,560.1,1716.2,560.1z M1915.3,354.8v12.9l8.4-6L1915.3,354.8z"/>
		</g>
		<g id="XMLID_69_">
			<path id="XMLID_76_" class="st3" d="M1425.7,432.1c-4.5,0-9-1.4-12.7-4.1l-65.9-47.6c-5.5-4-8.8-10.3-9-17
				c-0.2-6.8,2.8-13.2,8-17.5l65.9-53.8c6.5-5.3,15.5-6.4,23.1-2.8c7.6,3.6,12.4,11.3,12.4,19.7v101.4c0,8.2-4.6,15.7-11.9,19.4
				C1432.5,431.3,1429.1,432.1,1425.7,432.1z M1395.6,361.6l8.4,6v-12.9L1395.6,361.6z"/>
		</g>
	</g>
</g>
<g id="XMLID_28836_" class="st1">
	<path id="XMLID_28851_" class="st5" d="M1425.6,1080.2c-0.3-2.5-2.5-4.3-5-4c-4.1,0.5-7.4,1-10,1.4c-3.4,0.6-5.4,1-5.5,1
		c-2.5,0.5-4,3-3.5,5.4c0.5,2.1,2.4,3.6,4.4,3.6c0.3,0,0.7,0,1-0.1c0,0,5.5-1.2,14.5-2.2c0.2,0,0.3-0.1,0.4-0.1
		C1424.3,1084.6,1425.9,1082.5,1425.6,1080.2z"/>
	<path id="XMLID_28850_" class="st5" d="M1837.8,1294.9c-1.8,1.5-3.6,3-5.4,4.4c-2,1.5-2.3,4.4-0.8,6.4c0.9,1.2,2.2,1.8,3.6,1.8
		c0.9,0,1.8-0.3,2.6-0.8c0.1,0,0.2-0.1,0.2-0.1c2-1.5,3.9-3.1,5.8-4.8c6-5.2,11.8-11,17.4-17.4c1.7-1.9,1.5-4.8-0.4-6.4
		c-1.9-1.7-4.8-1.5-6.4,0.4c-3.4,3.9-7,7.6-10.5,11.1C1841.9,1291.3,1839.9,1293.2,1837.8,1294.9z"/>
	<path id="XMLID_28849_" class="st5" d="M1591.3,1137.2c0.9,0.9,2.1,1.4,3.2,1.4c1.2,0,2.3-0.4,3.2-1.3c1.8-1.8,1.8-4.7,0-6.4
		c-3.1-3.1-6.3-6-9.6-8.9c-2-1.7-4-3.4-6.1-5c-2.9-2.3-5.8-4.7-8.9-6.8c-2.1-1.4-4.9-0.9-6.3,1.1c-1.4,2.1-0.9,4.9,1.1,6.3
		c4.9,3.4,9.6,7.2,14.1,11.1c2.1,1.8,4.1,3.7,6.1,5.6C1589.2,1135.3,1590.3,1136.2,1591.3,1137.2z"/>
	<path id="XMLID_28848_" class="st5" d="M1626.2,1187c0.8,1.6,2.4,2.5,4.1,2.5c0.7,0,1.3-0.1,2-0.5c2.3-1.1,3.2-3.8,2.1-6.1
		c-3.2-6.6-6.8-12.8-10.5-18.8c-1.8-3-3.7-6-5.6-8.8c-0.1-0.2-0.3-0.3-0.5-0.4c-1.5-1.6-4-2-5.9-0.7c-2.1,1.4-2.6,4.3-1.1,6.3
		c2.4,3.5,4.7,7.2,7,11c2.1,3.6,4.1,7.2,6.1,11C1624.6,1184.1,1625.5,1185.5,1626.2,1187z"/>
	<path id="XMLID_28847_" class="st5" d="M1692.3,1295.7c0.6,0.3,1.3,0.5,2,0.5c1.2,0,2.4-0.5,3.3-1.4c1.8-1.8,1.7-4.7-0.1-6.4
		c-1.7-1.7-3.4-3.4-5.1-5.3c-2.1-2.2-4.1-4.5-6.1-6.8c-3-3.5-5.9-7.2-8.8-11c-1.5-2-4.3-2.5-6.4-0.9c-2,1.5-2.4,4.3-0.9,6.4
		c5.1,6.9,10.5,13.4,16.1,19.2c1.6,1.7,3.2,3.4,4.9,5C1691.4,1295.2,1691.9,1295.4,1692.3,1295.7z"/>
	<path id="XMLID_28846_" class="st5" d="M1656.8,1246.2c0.5,0,1-0.2,1.4-0.4c0.3-0.1,0.6-0.1,0.8-0.2c2.2-1.2,3-4,1.7-6.2
		c-0.9-1.5-1.7-3.2-2.5-4.7c-2.1-3.8-4.1-7.7-6.1-11.7c-1.8-3.6-3.6-7.3-5.3-11.1c-1-2.3-3.7-3.3-6-2.3c-2.3,1-3.3,3.7-2.3,6
		c4.2,9.5,8.8,18.6,13.6,27.1c0.2,0.4,0.4,0.9,0.7,1.3C1653.7,1245.4,1655.3,1246.2,1656.8,1246.2z"/>
	<path id="XMLID_28845_" class="st5" d="M1483,1085.7c0.2,0,0.4,0,0.6,0c2.2,0,4.2-1.7,4.5-3.9c0.3-2.5-1.4-4.8-3.9-5.1
		c-4.1-0.5-8.3-0.9-12.4-1.3c-2-0.2-4-0.3-6.1-0.4c-4.4-0.3-8.8-0.5-13.3-0.5c0,0,0,0,0,0c-2.5,0-4.5,2-4.6,4.5c0,2.5,2,4.6,4.5,4.6
		c4.5,0,8.9,0.3,13.4,0.5c2,0.1,4.1,0.3,6.1,0.5C1475.5,1084.9,1479.3,1085.2,1483,1085.7z"/>
	<path id="XMLID_28844_" class="st5" d="M1874.4,1259.9c0.8,0.5,1.6,0.7,2.5,0.7c0.5,0,1-0.2,1.5-0.4c0.9-0.3,1.8-0.8,2.3-1.7
		c2.7-4.3,5.4-8.7,8-13.2c1.2-2.2,0.5-5-1.7-6.2c-2.2-1.2-5-0.5-6.2,1.7c-0.8,1.3-1.6,2.6-2.4,3.9c-1.8,3-3.5,6-5.3,8.8
		C1871.6,1255.7,1872.2,1258.5,1874.4,1259.9z"/>
	<path id="XMLID_28840_" class="st5" d="M1506.1,900.5c-2.7-1.7-6.1-1.8-8.9-0.3l-175.5,91.4c-3,1.6-4.9,4.7-4.9,8.1v504.8
		c0,3.2,1.7,6.1,4.4,7.8c1.5,0.9,3.1,1.3,4.7,1.3c1.4,0,2.9-0.3,4.2-1l175.5-91.4c3-1.6,4.9-4.7,4.9-8.1v-323
		c0.6,0.9,1.4,1.6,2.5,1.9c9.5,2.7,18.7,6.1,27.4,10v318.6c0,3.4,1.9,6.5,4.9,8.1l175.5,91.4c1.3,0.7,2.8,1,4.2,1
		c1.6,0,3.3-0.4,4.7-1.3c2.7-1.6,4.4-4.6,4.4-7.8v-188.1c4,1.6,8,3,12,4.1c0.4,0.1,0.8,0.2,1.2,0.2c2,0,3.8-1.3,4.4-3.4
		c0.7-2.4-0.8-4.9-3.2-5.6c-4.8-1.3-9.6-3.1-14.4-5.2v-306.8c0-3.4-1.9-6.5-4.9-8.1l-175.5-91.4c-2.8-1.5-6.2-1.4-8.9,0.3
		c-2.7,1.7-4.4,4.6-4.4,7.8v176.3c-8-3.4-16.3-6.5-24.9-8.9c-2-0.5-3.9,0.3-5,1.9V908.3C1510.5,905.1,1508.8,902.1,1506.1,900.5z
		 M1492.3,1407.5l-20.6,10.7l-6.1,3.2l-29.6,15.4l-6.1,3.2l-28.5,14.9l-3.8,2l-30.3,15.8l-3.3,1.7l-29.1,15.2v-484.2l61.2-31.9
		l2.6-1.3l93.5-48.7V1407.5z M1558.6,930.8l23.6,12.3l6.1,3.2l29.6,15.4l6.1,3.2l28.4,14.8l6.1,3.2l57.6,30v294.8
		c-0.4,0.3-0.7,0.6-1,1.1c-1.2,1.9-0.7,4.4,1,5.8v182.5l-23.6-12.3l-6.1-3.2l-28-14.6l-6.1-3.2l-28.4-14.8l-6.1-3.2l-29.6-15.4
		l-6.1-3.2l-23.6-12.3V930.8z"/>
	<path id="XMLID_28837_" class="st5" d="M1762,999.7v504.8c0,3.2,1.7,6.1,4.4,7.8c1.5,0.9,3.1,1.3,4.7,1.3c1.4,0,2.9-0.3,4.2-1
		l100.3-52.2l2-1l31-16.1l5.4-2.8l36.9-19.2c3-1.6,4.9-4.7,4.9-8.1V908.3c0-3.2-1.7-6.1-4.4-7.8c-2.7-1.7-6.1-1.8-8.9-0.3
		l-175.5,91.4C1763.9,993.1,1762,996.3,1762,999.7z M1937.5,1407.5l-23.6,12.3l-6.1,3.2l-29.6,15.4l-6.1,3.2l-28.4,14.8l-6.1,3.2
		l-27.9,14.6l-6.1,3.2l-23.6,12.3v-158.5c7.9-0.8,15.8-2.5,23.6-5.3c2-0.7,4.1-1.5,6.1-2.3c0.1-0.1,0.3-0.1,0.4-0.1
		c2.3-1,3.4-3.7,2.4-6c-0.5-1.2-1.6-2.1-2.8-2.5c-1-0.3-2.1-0.4-3.2,0.1c-1,0.4-1.9,0.7-2.9,1.1c-7.8,3-15.7,5-23.6,5.8v-316.5
		l23.6-12.3l4.8-2.5l29.2-15.2l6.1-3.2l28.4-14.8l6.1-3.2l29.6-15.4l6.1-3.2l23.6-12.3V1407.5z"/>
</g>
<g id="XMLID_28334_" class="st1">
	<path id="XMLID_28342_" class="st6" d="M1288.6,1583.3L1288.6,1583.3c-2.9,0-5.7,1.1-7.7,3.2c-2,2-3.2,4.8-3.2,7.7v603
		c0,6,4.9,10.9,10.9,10.9l546.3,1.1h0c2.9,0,5.7-1.1,7.7-3.2c2-2,3.2-4.8,3.2-7.7v-603c0-6-4.9-10.9-10.9-10.9L1288.6,1583.3z
		 M1824,2187.5l-524.5-1.1v-581.2l524.5,1.1V2187.5z"/>
	<path id="XMLID_28339_" class="st6" d="M1454,1804.7c14.2,0,27.5-5.5,37.5-15.5c10-10,15.6-23.3,15.6-37.5
		c0-14.2-5.5-27.5-15.5-37.6c-10-10-23.3-15.6-37.5-15.6c0,0,0,0-0.1,0c-29.2,0-53.1,23.8-53.1,53c0,14.2,5.5,27.6,15.5,37.6
		C1426.4,1799.2,1439.7,1804.7,1454,1804.7C1453.9,1804.7,1453.9,1804.7,1454,1804.7z M1422.7,1751.5c0-17.2,14.1-31.2,31.3-31.2
		c0,0,0,0,0,0h0c8.3,0,16.2,3.3,22.1,9.2c5.9,5.9,9.1,13.8,9.1,22.2c0,8.3-3.3,16.2-9.2,22.1c-5.9,5.9-13.8,9.1-22.1,9.1
		c0,0,0,0,0,0c-8.3,0-16.2-3.3-22.1-9.2C1425.9,1767.8,1422.7,1759.9,1422.7,1751.5z"/>
	<path id="XMLID_28335_" class="st6" d="M1348.6,2053.3h427.1c6,0,10.9-4.9,10.9-10.9v-2.8v-122.9v-263.1c0-6-4.9-10.9-10.9-10.9
		H1348c-6,0-10.9,4.9-10.9,10.9v386c0,1.3,0.3,2.6,0.7,3.8C1338.3,2048.9,1342.9,2053.3,1348.6,2053.3z M1764.7,2028.6v2.8h-405.2
		v-72l67.7-83.7l82.1,69.8c2.3,2,5.3,2.9,8.2,2.5c3-0.3,5.7-1.8,7.5-4.2l111.8-146.7l127.9,124.1V2028.6z M1358.9,1664.4h405.9
		v226.4l-121.5-117.9c-2.2-2.2-5.3-3.3-8.4-3.1c-3.1,0.2-6,1.8-7.9,4.3l-112.3,147.3l-81.9-69.6c-2.2-1.9-5.2-2.8-8.1-2.6
		c-2.9,0.3-5.6,1.7-7.5,4l-58.4,72.2V1664.4z"/>
</g>
<text transform="matrix(1 0 0 1 384.6765 458.5225)" class="st3 st7 st8 st9">Date</text>
</svg>
