<?xml version="1.0" encoding="utf-8"?>
<!-- Generator: Adobe Illustrator 24.3.0, SVG Export Plug-In . SVG Version: 6.00 Build 0)  -->
<svg version="1.1" id="Layer_1" xmlns="http://www.w3.org/2000/svg" xmlns:xlink="http://www.w3.org/1999/xlink" x="0px" y="0px"
	 viewBox="0 0 1080 1080" style="enable-background:new 0 0 1080 1080;" xml:space="preserve">
<style type="text/css">
	.st0{fill:#6A3979;stroke:#CAA4CD;stroke-width:14;stroke-miterlimit:10;}
	.st1{display:none;}
	.st2{display:inline;}
	.st3{fill:#FFFFFF;}
	.st4{display:inline;fill:#FFFFFF;}
	.st5{display:inline;fill:#FFFFFF;stroke:#FFFFFF;stroke-width:11;stroke-miterlimit:10;}
	.st6{display:none;fill:#FFFFFF;stroke:#FFFFFF;stroke-width:12;stroke-miterlimit:10;}
	.st7{display:none;fill:#FFFFFF;stroke:#FFFFFF;stroke-width:4;stroke-miterlimit:10;}
	.st8{font-family:'AlfredoHeavy';}
	.st9{font-size:114px;}
	.st10{letter-spacing:10;}
</style>
<circle class="st0" cx="540" cy="540" r="497.8"/>
<g id="XMLID_190_" class="st1">
	<g id="XMLID_13_" class="st2">
		<path id="XMLID_163_" class="st3" d="M641.7,426.8c-2.7,0-5.4-0.7-7.7-2.1c-126.2-75.5-123.1-148.5-115.9-176.4
			c8.1-31.3,32.9-53.9,60.4-54.8c30.2-1.2,50.6,11.3,63.3,24.8c12.6-13.5,32.9-26,63.3-24.8l0,0c27.5,0.9,52.3,23.5,60.4,54.8
			c7.2,27.9,10.3,100.9-115.9,176.4C647.1,426.1,644.4,426.8,641.7,426.8z M582.1,223.5c-0.8,0-1.7,0-2.5,0
			c-12,0.4-26.9,11.6-32.3,32.2c-4.2,16.3-9.4,73.4,94.5,138.3c103.8-64.9,98.7-122,94.5-138.3c-5.3-20.6-20.3-31.8-32.3-32.2l0,0
			c-37.1-1.3-47.9,26.9-48,27.2c-2.1,6-7.8,10.1-14.2,10.1c-6.4,0-12.1-4-14.2-10.1C626.5,248,616.3,223.5,582.1,223.5z"/>
	</g>
	<g id="XMLID_12_" class="st2">
		<path id="XMLID_162_" class="st3" d="M585.3,324.8c-3,0-6-1.4-8-4c-15.8-20.8-21.1-40.5-15.8-58.7c5.1-17.5,20.5-24.5,28.8-25.9
			c5.5-0.9,10.6,2.8,11.5,8.2c0.9,5.4-2.7,10.6-8.1,11.5c-0.6,0.1-10.2,2.2-13,11.8c-3.5,11.9,0.6,25.3,12.5,40.9
			c3.4,4.4,2.5,10.7-1.9,14.1C589.5,324.1,587.4,324.8,585.3,324.8z"/>
	</g>
	<g id="XMLID_11_" class="st2">
		<path id="XMLID_161_" class="st3" d="M427.4,848.8C303.1,848.8,202,747.7,202,623.3c0-124.3,101.1-225.5,225.5-225.5
			c41.8,0,82.7,11.5,118.1,33.4c9.4,5.8,12.4,18.2,6.6,27.6c-5.8,9.5-18.2,12.4-27.6,6.6c-29.1-17.9-62.6-27.4-97-27.4
			c-102.2,0-185.3,83.1-185.3,185.3c0,102.2,83.1,185.3,185.3,185.3c102.2,0,185.3-83.1,185.3-185.3c0-32.2-8.4-63.9-24.3-91.7
			c-5.5-9.6-2.1-21.9,7.5-27.4c9.6-5.5,21.9-2.2,27.4,7.5c19.3,33.9,29.5,72.5,29.5,111.7C652.9,747.7,551.8,848.8,427.4,848.8z"/>
	</g>
	<g id="XMLID_10_" class="st2">
		<path id="XMLID_160_" class="st3" d="M659.3,886.6c-19.8,0-39.4-2.7-58.4-7.9c-10.7-3-17-14-14-24.7c3-10.7,14-17,24.7-14
			c15.4,4.3,31.5,6.4,47.7,6.4c98.5,0,178.6-80.1,178.6-178.6s-80.1-178.6-178.6-178.6c-98.5,0-178.6,80.1-178.6,178.6
			c0,25.5,5.2,50.1,15.6,73.1c4.5,10.1,0,22-10.1,26.5c-10.1,4.5-22,0-26.5-10.1c-12.7-28.2-19.1-58.4-19.1-89.5
			c0-120.6,98.1-218.8,218.8-218.8c120.6,0,218.8,98.1,218.8,218.8C878,788.5,779.9,886.6,659.3,886.6z"/>
	</g>
</g>
<g id="XMLID_180_" class="st1">
	<path id="XMLID_66_" class="st4" d="M613.1,383.3c-57.2-2-73.1,43.4-73.1,43.4s-15.9-45.4-73.1-43.4
		c-57.2,2-118.2,122.3,73.1,236.8C731.3,505.6,670.3,385.3,613.1,383.3z"/>
	<g id="XMLID_54_" class="st2">
		<path id="XMLID_85_" class="st3" d="M814.6,834H265.4c-11,0-20-8.9-20-20V529.8c0-7.5,4.2-14.4,10.9-17.8
			c6.6-3.4,14.7-2.8,20.8,1.6l263,189.7l263-189.7c6.1-4.4,14.1-5,20.8-1.6c6.7,3.4,10.9,10.3,10.9,17.8v284.3
			C834.6,825.1,825.7,834,814.6,834z M285.3,794.1h509.4V568.8l-243,175.3c-7,5-16.4,5-23.3,0l-243-175.3V794.1z"/>
	</g>
	<polygon id="XMLID_58_" class="st4" points="673.9,265.9 754.3,358.1 673.9,358.1 	"/>
	<g id="XMLID_68_" class="st2">
		<path id="XMLID_82_" class="st3" d="M540,747.9c-4.1,0-8.2-1.3-11.7-3.8L314.1,589.5c-5.2-3.8-8.3-9.8-8.3-16.2V265.9
			c0-11,8.9-20,20-20h348.2c5.8,0,11.3,2.5,15,6.8l80.3,92.1c3.2,3.6,4.9,8.3,4.9,13.1v215.3c0,6.4-3.1,12.4-8.3,16.2L551.7,744.1
			C548.2,746.6,544.1,747.9,540,747.9z M345.7,563.1L540,703.3l194.3-140.2V365.6l-69.5-79.7H345.7V563.1z"/>
	</g>
	<g id="XMLID_65_" class="st2">
		<g id="XMLID_67_">
			<path id="XMLID_79_" class="st3" d="M591.8,710.6c-6.2,0-12.3-2.9-16.2-8.3c-6.5-8.9-4.4-21.4,4.5-27.9l154.2-111.3v-82.6
				c0-7.7,4.4-14.7,11.4-18c7-3.3,15.2-2.3,21.2,2.6l60.4,49.3c4.8,3.9,7.5,9.9,7.3,16.1c-0.2,6.2-3.2,12-8.3,15.6L603.4,706.8
				C599.9,709.3,595.8,710.6,591.8,710.6z M774.2,522.6v11.8l7.7-5.5L774.2,522.6z"/>
		</g>
		<g id="XMLID_69_">
			<path id="XMLID_76_" class="st3" d="M325.7,593.3c-4.1,0-8.2-1.3-11.7-3.8L253.7,546c-5-3.6-8.1-9.4-8.3-15.6
				c-0.2-6.2,2.5-12.1,7.3-16.1l60.4-49.3c6-4.9,14.2-5.9,21.2-2.6c7,3.3,11.4,10.3,11.4,18v92.9c0,7.5-4.2,14.4-10.9,17.8
				C332,592.6,328.9,593.3,325.7,593.3z M298.1,528.8l7.7,5.5v-11.8L298.1,528.8z"/>
		</g>
	</g>
</g>
<g id="XMLID_28836_" class="st1">
	<path id="XMLID_28851_" class="st5" d="M340.2,416.7c-0.3-2.4-2.3-4.1-4.8-3.8c-3.9,0.4-7,0.9-9.4,1.3c-3.2,0.5-5.1,0.9-5.2,1
		c-2.3,0.5-3.8,2.8-3.3,5.2c0.4,2,2.2,3.4,4.2,3.4c0.3,0,0.6,0,0.9-0.1c0,0,5.2-1.1,13.8-2.1c0.1,0,0.3-0.1,0.4-0.1
		C338.9,420.9,340.4,419,340.2,416.7z"/>
	<path id="XMLID_28850_" class="st5" d="M731.2,620.5c-1.7,1.4-3.4,2.9-5.1,4.2c-1.9,1.5-2.2,4.2-0.8,6.1c0.8,1.1,2.1,1.7,3.4,1.7
		c0.8,0,1.7-0.3,2.4-0.8c0.1,0,0.2-0.1,0.2-0.1c1.9-1.5,3.7-3,5.5-4.6c5.7-4.9,11.2-10.4,16.5-16.5c1.6-1.8,1.4-4.5-0.4-6.1
		c-1.8-1.6-4.5-1.4-6.1,0.4c-3.3,3.7-6.6,7.2-10,10.5C735.1,617.1,733.2,618.8,731.2,620.5z"/>
	<path id="XMLID_28849_" class="st5" d="M497.4,470.9c0.8,0.9,2,1.3,3.1,1.3c1.1,0,2.2-0.4,3-1.3c1.7-1.7,1.7-4.4,0-6.1
		c-2.9-2.9-6-5.7-9.1-8.4c-1.9-1.6-3.8-3.2-5.8-4.8c-2.8-2.2-5.5-4.4-8.4-6.5c-2-1.4-4.6-0.9-6,1.1c-1.4,2-0.9,4.6,1.1,6
		c4.6,3.3,9.1,6.8,13.4,10.6c2,1.7,3.9,3.5,5.8,5.3C495.4,469.1,496.4,469.9,497.4,470.9z"/>
	<path id="XMLID_28848_" class="st5" d="M530.5,518.1c0.8,1.5,2.3,2.4,3.9,2.4c0.6,0,1.3-0.1,1.9-0.4c2.1-1.1,3-3.6,2-5.8
		c-3.1-6.2-6.5-12.1-10-17.8c-1.8-2.8-3.5-5.7-5.3-8.3c-0.1-0.2-0.3-0.3-0.4-0.4c-1.4-1.5-3.8-1.9-5.6-0.7c-2,1.4-2.4,4.1-1.1,6
		c2.3,3.3,4.5,6.8,6.6,10.4c2,3.4,3.9,6.9,5.8,10.4C528.9,515.3,529.8,516.7,530.5,518.1z"/>
	<path id="XMLID_28847_" class="st5" d="M593.2,621.2c0.6,0.3,1.2,0.5,1.9,0.5c1.1,0,2.2-0.4,3.1-1.3c1.7-1.7,1.6-4.4-0.1-6.1
		c-1.6-1.6-3.3-3.3-4.9-5c-1.9-2.1-3.9-4.3-5.8-6.5c-2.8-3.3-5.6-6.8-8.3-10.5c-1.4-1.9-4.1-2.3-6-0.9c-1.9,1.4-2.3,4.1-0.9,6
		c4.9,6.6,10,12.7,15.2,18.2c1.5,1.6,3.1,3.2,4.6,4.7C592.3,620.7,592.7,621,593.2,621.2z"/>
	<path id="XMLID_28846_" class="st5" d="M559.5,574.3c0.5,0,0.9-0.2,1.4-0.4c0.3-0.1,0.5-0.1,0.8-0.2c2.1-1.2,2.8-3.8,1.6-5.9
		c-0.8-1.4-1.6-3-2.4-4.5c-2-3.6-3.9-7.3-5.8-11.1c-1.7-3.5-3.4-6.9-5-10.5c-1-2.2-3.5-3.1-5.7-2.2c-2.2,1-3.2,3.5-2.2,5.7
		c4,9,8.4,17.6,12.9,25.7c0.2,0.4,0.4,0.8,0.6,1.2C556.6,573.5,558,574.3,559.5,574.3z"/>
	<path id="XMLID_28845_" class="st5" d="M394.6,422c0.2,0,0.4,0,0.6,0c2.1,0,4-1.6,4.3-3.7c0.3-2.4-1.3-4.5-3.7-4.9
		c-3.9-0.5-7.8-0.9-11.8-1.2c-1.9-0.2-3.8-0.3-5.8-0.4c-4.2-0.2-8.4-0.5-12.6-0.5c0,0,0,0,0,0c-2.4,0-4.3,1.9-4.3,4.3
		c0,2.4,1.9,4.3,4.3,4.3c4.2,0,8.5,0.2,12.7,0.5c1.9,0.1,3.8,0.3,5.8,0.4C387.5,421.3,391.1,421.6,394.6,422z"/>
	<path id="XMLID_28844_" class="st5" d="M765.9,587.2c0.7,0.5,1.5,0.7,2.3,0.7c0.5,0,1-0.2,1.4-0.4c0.9-0.3,1.7-0.8,2.2-1.6
		c2.6-4,5.2-8.3,7.6-12.5c1.2-2.1,0.4-4.7-1.6-5.9c-2.1-1.2-4.7-0.4-5.9,1.6c-0.7,1.3-1.5,2.5-2.3,3.7c-1.7,2.8-3.3,5.7-5.1,8.4
		C763.3,583.2,763.9,585.9,765.9,587.2z"/>
	<path id="XMLID_28840_" class="st5" d="M416.5,246.3c-2.6-1.6-5.8-1.7-8.5-0.3l-166.5,86.7c-2.9,1.5-4.6,4.4-4.6,7.7v478.8
		c0,3,1.6,5.8,4.2,7.4c1.4,0.8,2.9,1.3,4.5,1.3c1.4,0,2.7-0.3,4-1L416,740.2c2.9-1.5,4.6-4.4,4.6-7.7V426.1c0.6,0.8,1.3,1.5,2.4,1.8
		c9,2.5,17.7,5.8,26,9.5v302.2c0,3.2,1.8,6.2,4.7,7.7L620.2,834c1.3,0.7,2.6,1,4,1c1.6,0,3.1-0.4,4.5-1.3c2.6-1.6,4.2-4.4,4.2-7.4
		V647.9c3.8,1.5,7.6,2.9,11.4,3.9c0.4,0.1,0.8,0.2,1.1,0.2c1.9,0,3.6-1.3,4.2-3.2c0.6-2.3-0.7-4.7-3-5.3c-4.6-1.2-9.1-2.9-13.6-4.9
		V347.5c0-3.2-1.8-6.2-4.7-7.7l-166.5-86.7c-2.7-1.4-5.9-1.3-8.5,0.3c-2.6,1.6-4.2,4.4-4.2,7.4V428c-7.6-3.3-15.5-6.2-23.6-8.5
		c-1.9-0.5-3.7,0.3-4.7,1.8V253.7C420.7,250.7,419.1,247.9,416.5,246.3z M403.4,727.3l-19.5,10.2l-5.8,3l-28,14.6l-5.8,3l-27.1,14.1
		l-3.6,1.9l-28.8,15l-3.1,1.6L254.2,805V345.6l58-30.2l2.4-1.3l88.7-46.2V727.3z M466.3,275l22.4,11.6l5.8,3l28,14.6l5.8,3l26.9,14
		l5.8,3l54.6,28.4v279.7c-0.4,0.3-0.7,0.6-0.9,1c-1.1,1.8-0.7,4.2,0.9,5.5v173.1l-22.4-11.6l-5.8-3l-26.5-13.8l-5.7-3l-26.9-14
		l-5.8-3l-28-14.6l-5.8-3l-22.4-11.6V275z"/>
	<path id="XMLID_28837_" class="st5" d="M659.3,340.4v478.8c0,3,1.6,5.8,4.2,7.4c1.4,0.8,2.9,1.3,4.5,1.3c1.4,0,2.7-0.3,4-1
		l95.1-49.5l1.9-1l29.4-15.3l5.1-2.7l35-18.2c2.9-1.5,4.7-4.4,4.7-7.7V253.7c0-3-1.6-5.8-4.2-7.4c-2.6-1.6-5.8-1.7-8.5-0.3
		L664,332.7C661.1,334.2,659.3,337.1,659.3,340.4z M825.8,727.3l-22.4,11.6l-5.8,3l-28,14.6l-5.8,3l-26.9,14l-5.8,3l-26.5,13.8
		l-5.8,3L676.6,805V654.6c7.5-0.7,15-2.4,22.4-5c1.9-0.7,3.8-1.4,5.8-2.2c0.1-0.1,0.2-0.1,0.4-0.1c2.2-0.9,3.2-3.5,2.3-5.7
		c-0.5-1.2-1.5-2-2.6-2.4c-1-0.3-2-0.3-3,0.1c-0.9,0.4-1.8,0.7-2.7,1c-7.4,2.9-14.9,4.7-22.4,5.5V345.6L699,334l4.5-2.4l27.7-14.4
		l5.8-3l26.9-14l5.8-3l28-14.6l5.8-3l22.4-11.7V727.3z"/>
</g>
<path id="XMLID_28342_" class="st6" d="M289,252.4L289,252.4c-2.7,0-5.2,1.1-7.1,2.9c-1.9,1.9-2.9,4.4-2.9,7.1v554.1
	c0,5.5,4.5,10,10,10l502,1h0c2.7,0,5.2-1,7.1-2.9c1.9-1.9,2.9-4.4,2.9-7.1V263.5c0-5.5-4.5-10-10-10L289,252.4z M781,807.6l-481.9-1
	V272.5l481.9,1V807.6z"/>
<path id="XMLID_28339_" class="st6" d="M440.9,455.8c13,0,25.2-5.1,34.4-14.2c9.2-9.2,14.3-21.4,14.3-34.5c0-13-5-25.3-14.2-34.5
	c-9.2-9.2-21.5-14.3-34.5-14.4c0,0,0,0-0.1,0c-26.9,0-48.8,21.8-48.8,48.7c0,13,5,25.3,14.3,34.6
	C415.6,450.7,427.9,455.8,440.9,455.8C440.9,455.8,440.9,455.8,440.9,455.8z M412.2,406.9c0-15.8,12.9-28.7,28.8-28.7c0,0,0,0,0,0h0
	c7.7,0,14.9,3,20.3,8.5c5.4,5.4,8.4,12.7,8.4,20.4c0,7.7-3,14.9-8.5,20.3c-5.4,5.4-12.6,8.4-20.3,8.4c0,0,0,0,0,0
	c-7.7,0-14.9-3-20.3-8.4C415.2,421.9,412.2,414.6,412.2,406.9z"/>
<path id="XMLID_28335_" class="st7" d="M344.1,684.2h392.4c5.5,0,10-4.5,10-10v-2.6V558.7V316.9c0-5.5-4.5-10-10-10h-393
	c-5.5,0-10,4.5-10,10v354.7c0,1.2,0.3,2.4,0.7,3.5C334.6,680.2,338.9,684.2,344.1,684.2z M726.5,661.6v2.6H354.1V598l62.2-76.9
	l75.5,64.1c2.1,1.8,4.8,2.6,7.6,2.3c2.7-0.3,5.2-1.7,6.9-3.9L609,448.9l117.5,114V661.6z M353.6,326.9h373v208L614.9,426.6
	c-2.1-2-4.8-3-7.7-2.8c-2.9,0.2-5.5,1.6-7.2,3.9L496.7,563.1l-75.2-64c-2.1-1.8-4.7-2.6-7.4-2.4c-2.7,0.3-5.2,1.6-6.9,3.7
	l-53.6,66.3V326.9z"/>
<g class="st1">
	<g id="XMLID_2_" class="st2">
		<path id="XMLID_176_" class="st3" d="M770,850.7H310c-41.5,0-75.2-33.7-75.2-75.2v-442c0-41.5,33.7-75.2,75.2-75.2H770
			c41.5,0,75.2,33.7,75.2,75.2v442C845.2,817,811.4,850.7,770,850.7z M310,298.6c-19.3,0-35,15.7-35,35v442c0,19.3,15.7,35,35,35
			H770c19.3,0,35-15.7,35-35v-442c0-19.3-15.7-35-35-35H310z"/>
	</g>
	<g id="XMLID_8_" class="st2">
		<path id="XMLID_173_" class="st3" d="M540,771.8c-2.7,0-5.5-0.7-7.9-2.2c-136.9-81.9-133.6-161-125.9-191.1
			c8.7-33.7,35.4-58,64.9-59c32.8-1.1,55.4,12.6,68.9,27.5c13.5-14.9,36-28.5,68.9-27.5l0,0c29.5,1,56.2,25.3,64.9,59
			c7.8,30.2,11.1,109.2-125.9,191.1C545.5,771.1,542.7,771.8,540,771.8z M475,550.3c-0.9,0-1.9,0-2.8,0c-13.4,0.5-30.1,12.9-36,35.8
			c-4.6,17.9-10.3,80.8,103.9,152.1C654.2,667,648.5,604.1,643.9,586.2c-5.9-22.9-22.6-35.4-36-35.8l0,0
			c-40.4-1.4-52.1,27.1-53.3,30.4c-2.3,6.1-8,10.4-14.7,10.1c-6.5-0.1-12.3-4.1-14.5-10.3C524.3,577.6,513,550.3,475,550.3z"/>
	</g>
	<g id="XMLID_3_" class="st2">
		<path id="XMLID_166_" class="st3" d="M475.5,662.5c-3.5,0-7-1.6-9.2-4.6c-18.1-23.8-24.1-46.4-18.1-67.2
			c5.9-20.1,23.6-28.1,33.1-29.7c6.3-1.1,12.3,3.2,13.3,9.5c1,6.3-3.2,12.2-9.4,13.3c-0.7,0.1-11.6,2.5-14.8,13.4
			c-4,13.6,0.7,28.9,14.3,46.7c3.9,5.1,2.9,12.4-2.2,16.2C480.4,661.7,477.9,662.5,475.5,662.5z"/>
	</g>
	<path id="XMLID_6_" class="st4" d="M401.7,327.6h-21.6c-10.3,0-18.6-8.3-18.6-18.6v-61.1c0-10.3,8.3-18.6,18.6-18.6h21.6
		c10.3,0,18.6,8.3,18.6,18.6V309C420.4,319.3,412,327.6,401.7,327.6z"/>
	<path id="XMLID_9_" class="st4" d="M699.9,327.6h-21.6c-10.3,0-18.6-8.3-18.6-18.6v-61.1c0-10.3,8.3-18.6,18.6-18.6h21.6
		c10.3,0,18.6,8.3,18.6,18.6V309C718.5,319.3,710.2,327.6,699.9,327.6z"/>
	<text transform="matrix(1 0 0 1 384.6765 458.5225)" class="st4 st8 st9 st10">Date</text>
</g>
<g id="XMLID_185_">
	<g id="XMLID_32_">
		<path id="XMLID_128_" class="st3" d="M771.4,867.1H308.6c-8.2,0-14.9-6.7-14.9-14.9V593.4c0-8.2,6.7-14.9,14.9-14.9h462.8
			c8.2,0,14.9,6.7,14.9,14.9v258.7C786.3,860.4,779.6,867.1,771.4,867.1z M323.5,837.2h432.9V608.4H323.5V837.2z"/>
	</g>
	<g id="XMLID_34_">
		<path id="XMLID_125_" class="st3" d="M855.2,608.4H224.8c-8.2,0-14.9-6.7-14.9-14.9v-113c0-8.2,6.7-14.9,14.9-14.9h630.4
			c8.2,0,14.9,6.7,14.9,14.9v113C870.1,601.7,863.4,608.4,855.2,608.4z M239.7,578.5h600.5v-83.1H239.7V578.5z"/>
	</g>
	<rect id="XMLID_35_" x="487.2" y="480.5" class="st3" width="105.7" height="371.7"/>
	<g id="XMLID_37_">
		<path id="XMLID_122_" class="st3" d="M540,455.3c-1.7,0-3.4-0.3-5.1-0.9c-112.2-40.5-170.8-97-179.2-172.7
			c-3.9-34.7,14.1-65.1,45.6-77.4c29.2-11.4,70.8-6.4,97.8,30.5c42.1,57.3,55.1,198.3,55.7,204.3c0.5,5.1-1.7,10-5.7,13.2
			C546.5,454.3,543.2,455.3,540,455.3z M430.5,228.8c-6.5,0-12.8,1.2-18.3,3.4c-19.2,7.5-29.2,24.8-26.8,46.2
			c6.5,58.4,51.3,104,136.9,139.2c-5.5-42-19.6-127.5-47.2-165.2C462.7,235.5,445.9,228.8,430.5,228.8z"/>
	</g>
	<g id="XMLID_38_">
		<path id="XMLID_121_" class="st3" d="M481.7,470.6c-86,0-177.3-69.3-182.2-73.1c-6.5-5-7.8-14.4-2.7-20.9c5-6.5,14.4-7.8,20.9-2.7
			c1.3,1,135.1,102.4,214.5,53.8c7-4.3,16.2-2.1,20.5,4.9c4.3,7,2.1,16.2-4.9,20.5C527.3,465.7,504.7,470.6,481.7,470.6z"/>
	</g>
	<g id="XMLID_39_">
		<path id="XMLID_118_" class="st3" d="M540,435.6c-8.1,0-14.8-6.5-14.9-14.6c-0.1-4.1-1.3-101.9,59.5-142.4
			c36.9-24.6,75-12.2,96.4,10.9c21.3,23,24.3,54.1,7.4,75.6C657,405.1,593.3,435.4,540,435.6C540,435.6,540,435.6,540,435.6z
			 M626.7,295.1c-8,0-16.7,2.4-25.6,8.3c-34.8,23.2-43.4,75.1-45.5,101.3c40.5-5.4,86.8-29.4,109.3-58c9-11.4,3.5-26.8-5.9-36.9
			C651.6,301.7,640.1,295.1,626.7,295.1z"/>
	</g>
	<g id="XMLID_40_">
		<path id="XMLID_117_" class="st3" d="M621.3,463.4c-29.2,0-59.8-8.7-90.1-30.7c-6.7-4.8-8.2-14.2-3.3-20.9
			c4.8-6.7,14.2-8.2,20.9-3.3c44,31.9,92.4,33.5,144,4.7c40.1-22.4,66.7-54.9,67-55.2c5.2-6.4,14.6-7.4,21-2.2
			c6.4,5.2,7.4,14.6,2.2,21C753.2,413.6,691.3,463.4,621.3,463.4z"/>
	</g>
</g>
</svg>
