<?xml version="1.0" encoding="utf-8"?>
<!-- Generator: Adobe Illustrator 24.3.0, SVG Export Plug-In . SVG Version: 6.00 Build 0)  -->
<svg version="1.1" id="Layer_1" xmlns="http://www.w3.org/2000/svg" xmlns:xlink="http://www.w3.org/1999/xlink" x="0px" y="0px"
	 viewBox="0 0 1080 1080" style="enable-background:new 0 0 1080 1080;" xml:space="preserve">
<style type="text/css">
	.st0{display:none;}
	.st1{display:inline;fill:none;stroke:#000000;stroke-width:20;stroke-miterlimit:10;}
	.st2{fill:none;stroke:#CA85B9;stroke-width:35;stroke-miterlimit:10;}
</style>
<g class="st0">
	<path class="st1" d="M-604.9,273.6L-604.9,273.6c-27.7,0-50.2-22.5-50.2-50.2v-558.2h100.5v558.2
		C-554.6,251.1-577.1,273.6-604.9,273.6z"/>
	<path class="st1" d="M-168.1,138.4L-168.1,138.4c-27.7,0-50.2-22.5-50.2-50.2v-423h100.5v423C-117.9,115.9-140.4,138.4-168.1,138.4
		z"/>
	<circle class="st1" cx="-386.5" cy="-146.6" r="268.6"/>
	<circle class="st1" cx="-386.5" cy="-144.2" r="168.1"/>
	<circle class="st1" cx="-310.8" cy="59.6" r="49.2"/>
	<circle class="st1" cx="-168.1" cy="224.4" r="49.2"/>
</g>
<g>
	<path class="st2" d="M915,432.8v327.8c0,38.7-31.4,70.1-70.1,70.1c-38.7,0-70.1-31.4-70.1-70.1V436.1
		c0-129.7-105.1-234.8-234.8-234.8S305.2,306.5,305.2,436.1c0,129.7,105.1,234.8,234.8,234.8c28.3,0,55.4-5,80.5-14.2
		c0.1,0,0.2-0.1,0.2-0.1c0.7-0.2,1.3-0.5,2-0.7c0,0,0.1,0,0.1,0c7.2-2.5,14.9-3.9,22.9-3.9c37.9,0,68.6,30.7,68.6,68.7
		c0,27.7-16.4,51.5-40,62.4c0,0,0,0,0,0c-3.3,1.3-6.7,2.5-10,3.7c0,0,0,0,0,0c-38.9,13.6-80.7,21.1-124.2,21.1
		c-88.9,0-170.5-30.9-234.8-82.5v226.9c0,38.7-31.4,70.1-70.1,70.1c-38.7,0-70.1-31.4-70.1-70.1V432.8c0-102.4,41-195.1,107.5-262.8
		C340.5,100.7,435.2,57.7,540,57.7s199.5,43,267.6,112.2C874,237.6,915,330.4,915,432.8z"/>
	<path class="st2" d="M674.3,783.1c-3.2,1.5-6.6,2.7-10,3.7C667.6,785.6,670.9,784.3,674.3,783.1z"/>
	<circle class="st2" cx="844.9" cy="953.6" r="68.6"/>
</g>
</svg>
