<?xml version="1.0" encoding="utf-8"?>
<!-- Generator: Adobe Illustrator 24.3.0, SVG Export Plug-In . SVG Version: 6.00 Build 0)  -->
<svg version="1.1" id="Layer_1" xmlns="http://www.w3.org/2000/svg" xmlns:xlink="http://www.w3.org/1999/xlink" x="0px" y="0px"
	 viewBox="0 0 4000 4000" style="enable-background:new 0 0 4000 4000;" xml:space="preserve">
<style type="text/css">
	.st0{fill:#92278F;}
	.st1{display:none;}
	.st2{display:inline;}
	.st3{fill:none;stroke:#FFFFFF;stroke-width:60;stroke-miterlimit:10;}
	.st4{display:inline;fill:none;stroke:#FFFFFF;stroke-width:60;stroke-miterlimit:10;}
	.st5{fill:none;stroke:#92278F;stroke-width:70;stroke-miterlimit:10;}
	.st6{display:inline;fill:none;stroke:#92278F;stroke-width:70;stroke-miterlimit:10;}
	.st7{display:inline;fill:none;stroke:#000000;stroke-width:50;stroke-miterlimit:10;}
	.st8{fill:none;stroke:#FFFFFF;stroke-width:80;stroke-miterlimit:10;}
</style>
<rect class="st0" width="4000" height="4000"/>
<g class="st1">
	<g class="st2">
		<path class="st3" d="M6243.2-2731.1v1184c0,55.2-44.8,100-100,100h-15.8c-55.2,0-100-44.8-100-100V-2726
			c0-199.5-161.7-361.1-361.1-361.1s-361.1,161.7-361.1,361.1v434.6h420.7c55.2,0,100,44.8,100,100v15.8c0,55.2-44.8,100-100,100
			h-420.7v412.5c0,171.4-74.8,325.4-193.5,431.1c-101.9,90.7-236.2,145.8-383.4,145.8c-180,0-340.8-82.5-446.6-211.7
			c-5.1-6.2-10-12.5-14.8-18.9c-10.7-17.4-16.6-38-15.8-60.1c2.1-56,47.9-101.2,103.9-102.6c33-0.8,62.7,13.3,82.8,36.1
			c2.9,3.9,5.8,7.7,8.8,11.4c66.7,83.1,169.4,136.1,284.5,135.2c197.1-1.5,358.4-166.2,358.4-363.4v-415.4h-307.6
			c-55.2,0-100-44.8-100-100v-15.8c0-55.2,44.8-100,100-100h307.6v-439.8c0-157.5,63.1-300.2,165.4-404.3
			c104.7-106.6,250.4-172.6,411.6-172.6s306.9,66.1,411.6,172.6C6180.1-3031.3,6243.2-2888.6,6243.2-2731.1z"/>
	</g>
	<circle class="st4" cx="6135.3" cy="-1192.9" r="106.7"/>
</g>
<g class="st1">
	<g class="st2">
		<path class="st5" d="M7448.5,576.9v1184c0,55.2-44.8,100-100,100h-15.8c-55.2,0-100-44.8-100-100V582.1
			c0-199.5-161.7-361.1-361.1-361.1s-361.1,161.7-361.1,361.1v434.6h420.7c55.2,0,100,44.8,100,100v15.8c0,55.2-44.8,100-100,100
			h-420.7V1645c0,171.4-74.8,325.4-193.5,431.1c-101.9,90.7-236.2,145.8-383.4,145.8c-180,0-340.8-82.5-446.6-211.7
			c-5.1-6.2-10-12.5-14.8-18.9c-10.7-17.4-16.6-38-15.8-60.1c2.1-56,47.9-101.2,103.9-102.6c33-0.8,62.7,13.3,82.8,36.1
			c2.9,3.9,5.8,7.7,8.8,11.4c66.7,83.1,169.4,136.1,284.5,135.2c197.1-1.5,358.4-166.2,358.4-363.4v-415.4h-307.6
			c-55.2,0-100-44.8-100-100v-15.8c0-55.2,44.8-100,100-100h307.6V576.9c0-157.5,63.1-300.2,165.4-404.3
			C6564.7,66.1,6710.4,0,6871.6,0c161.2,0,306.9,66.1,411.6,172.6C7385.4,276.7,7448.5,419.4,7448.5,576.9z"/>
	</g>
	<circle class="st6" cx="7340.6" cy="2115.2" r="106.7"/>
</g>
<g class="st1">
	<rect x="-1541.9" y="1517" class="st7" width="215.8" height="2078.9"/>
	<rect x="-603.8" y="1517" class="st7" width="215.8" height="1866.6"/>
	
		<rect x="-1541.9" y="1953.6" transform="matrix(2.479978e-11 -1 1 2.479978e-11 -3903.0066 1035.0322)" class="st7" width="215.8" height="1030.9"/>
	<circle class="st7" cx="-965" cy="1921.3" r="576.9"/>
	<circle class="st7" cx="-965" cy="1926.5" r="361.1"/>
	<circle class="st7" cx="-1903" cy="3164.9" r="576.9"/>
	<circle class="st7" cx="-1903" cy="3170.1" r="361.1"/>
	<circle class="st7" cx="-2116" cy="3584.5" r="106.7"/>
	<circle class="st7" cx="-495.9" cy="3637.9" r="106.7"/>
</g>
<g class="st1">
	<path class="st7" d="M2748.1-2936.4C2643.4-3043,2497.7-3109,2336.5-3109c-161.2,0-306.9,66.1-411.6,172.6
		c-102.3,104.1-165.3,246.8-165.3,404.3v793.7c-99.7-80.2-226.6-127.8-364.7-127c-318.6,2-574.3,260.2-573.3,578.8
		c1,317.8,258.9,575.1,576.9,575.1c136.7,0,262.3-47.5,361.1-127v19.1c0,59.6,48.3,107.9,107.9,107.9h0
		c59.6,0,107.9-48.3,107.9-107.9v-1057h415.2c59.6,0,107.9-48.3,107.9-107.9v0c0-59.6-48.3-107.9-107.9-107.9h-415.2v-434.6
		c0-198.7,160.4-359.9,358.8-361.1c199.9-1.3,363.5,163.6,363.5,363.5v1454.8h215.8v-1462.3
		C2913.4-2689.6,2850.4-2832.3,2748.1-2936.4z M1398.5-922.2c-199.4,0-361.1-161.7-361.1-361.1s161.7-361.1,361.1-361.1
		c199.4,0,361.1,161.7,361.1,361.1S1597.9-922.2,1398.5-922.2z"/>
	<path class="st7" d="M1759.6-1283.4c0,199.4-161.7,361.1-361.1,361.1c-199.4,0-361.1-161.7-361.1-361.1s161.7-361.1,361.1-361.1
		C1597.9-1644.5,1759.6-1482.8,1759.6-1283.4z"/>
	<path class="st7" d="M1759.6-1283.4c0,199.4-161.7,361.1-361.1,361.1c-199.4,0-361.1-161.7-361.1-361.1s161.7-361.1,361.1-361.1
		C1597.9-1644.5,1759.6-1482.8,1759.6-1283.4z"/>
	<circle class="st7" cx="2805.5" cy="-818.4" r="106.7"/>
</g>
<g>
	<path class="st8" d="M2962,1716.6V2537c0,99.4-80.5,179.9-179.9,179.9h0c-99.4,0-179.9-80.5-179.9-179.9v-807.7
		c0-333.3-272.7-608.2-606.1-606.1c-330.8,2.1-598.3,270.9-598.3,602.2c0,332.6,269.6,602.2,602.2,602.2c70.2,0,137.5-12,200.1-34.1
		c0.1,0,0.2-0.1,0.2-0.1c2.2-0.8,4.3-1.5,6.5-2.3c0.1,0,0.2-0.1,0.2-0.1c17.5-5.8,36.2-9,55.6-9c97.2,0,176,78.8,176,176
		c0,73-44.5,135.7-107.9,162.3c-0.1,0-0.2,0.1-0.3,0.1c-6,2.2-12.1,4.4-18.2,6.4c-0.1,0-0.1,0-0.2,0.1
		c-97.9,33.5-202.8,51.8-312.1,51.8c-227.9,0-437.3-79.3-602.2-211.7v598.5c0,99.4-80.5,179.9-179.9,179.9h0
		c-99.4,0-179.9-80.5-179.9-179.9V1716.6c0-296.8,134.4-562.3,345.8-738.7c166.9-139.4,381.8-223.3,616.2-223.3
		s449.3,83.9,616.2,223.3C2827.5,1154.4,2962,1419.8,2962,1716.6z"/>
	<circle class="st8" cx="2782.1" cy="3067.4" r="178"/>
	<path class="st8" d="M2330.4,2620.4c-5.9,2.5-12,4.6-18.2,6.4C2318.3,2624.7,2324.4,2622.6,2330.4,2620.4z"/>
</g>
<g class="st1">
	<rect x="5817.4" y="3665.1" class="st7" width="215.8" height="1042.9"/>
	<rect x="4879.3" y="3665.1" class="st7" width="215.8" height="1359.8"/>
	<circle class="st7" cx="5456.2" cy="4108.1" r="576.9"/>
	<circle class="st7" cx="5456.2" cy="4113.3" r="361.1"/>
	<circle class="st7" cx="5925.3" cy="4918.1" r="106.7"/>
	<circle class="st7" cx="5613.7" cy="4552.7" r="105.5"/>
</g>
</svg>
