<svg xmlns="http://www.w3.org/2000/svg" width="317" height="317" viewBox="0 0 317 317"><g transform="translate(104 465)"><g transform="translate(-104 -465)" fill="#6a397a" stroke="#c898de" stroke-width="8"><circle cx="158.5" cy="158.5" r="158.5" stroke="none"/><circle cx="158.5" cy="158.5" r="154.5" fill="none"/></g><path d="M-56.758-774.624s61.108,9.764,97.3,4.294S88.016-796.5,88.016-796.5s6.979,17.78,22.2,24.073,38.674,1.1,38.674,1.1" transform="translate(9 357)" fill="none" stroke="#fff" stroke-width="8"/><path d="M-35.371-768.665V-688.5" transform="translate(9 357)" fill="none" stroke="#fff" stroke-width="8"/><path d="M-35.371-768.665V-688.5" transform="translate(174 357)" fill="none" stroke="#fff" stroke-width="8"/><path d="M-45.818-684.716s40.183.823,63.092-4.935,28.544-18.1,28.544-18.1,12.318,12.339,35.618,18.1,57.581,4.935,57.581,4.935l.29,31.834s-1.915,30.045-26.037,45S67.017-593.08,45.818-593.08c-21.63,0-42.075.144-65.806-14.806s-26.119-45-26.119-45Z" transform="translate(9 357)" fill="none" stroke="#fff" stroke-width="8"/><path d="M-23.279-610.108s6.157,23.75,23.144,35.677,44.8,12.033,44.8,12.033,24.613,2.755,42.175-9.172,28.074-38.537,28.074-38.537" transform="translate(9 357)" fill="none" stroke="#fff" stroke-width="8"/><path d="M10.694-568.979-3.537-521.845" transform="translate(9 357)" fill="none" stroke="#fff" stroke-width="8"/><path d="M-3.537-568.979l14.231,47.134" transform="translate(95 357)" fill="none" stroke="#fff" stroke-width="8"/><path d="M177.431-1058.99s11.639,9.377,22.456,9.377,20.811-9.377,20.811-9.377" transform="translate(-183 682)" fill="none" stroke="#fff" stroke-width="8"/><path d="M177.431-1058.99s11.639,9.377,22.456,9.377,20.811-9.377,20.811-9.377" transform="translate(-102 682)" fill="none" stroke="#fff" stroke-width="8"/></g></svg>