<svg xmlns="http://www.w3.org/2000/svg" width="317" height="317" viewBox="0 0 317 317"><g transform="translate(-222 465)"><g transform="translate(222 -465)" fill="#6a397a" stroke="#c898de" stroke-width="8"><circle cx="158.5" cy="158.5" r="158.5" stroke="none"/><circle cx="158.5" cy="158.5" r="154.5" fill="none"/></g><path d="M502.47-1032.784l61.077,12.945s19.89-20,39.12-14.552c4.538,1.285,20.543,14.552,20.543,14.552h49.411a9.091,9.091,0,0,1,8.463,9c.528,8.629-8.463,9.607-8.463,9.607h39.245s8.458,1.292,8.458,10.264-8.458,9.626-8.458,9.626H621.292l78.085.026s10.281.8,10.281,10.7-10.281,9.913-10.281,9.913H621.292l69.08.384s9-.744,9,8.972-9,9.892-9,9.892H591.351s-10.814-1.069-19.182-5.881S557.88-960.7,557.88-960.7l-51.41,9.8" transform="translate(-268 691)" fill="none" stroke="#fff" stroke-width="8"/><path d="M506.764-754.452s.181-6.25,16.238-13.82,44.365,16.82,44.365,16.82l63.249-14.82" transform="translate(-104 425)" fill="none" stroke="#fff" stroke-width="8"/><path d="M622.663-694.589l-46.46-5.333a29.17,29.17,0,0,1-18.669,12.32c-12.95,2.583-33.132.013-33.132.013" transform="translate(-101 437)" fill="none" stroke="#fff" stroke-width="8"/><path d="M281.718-419.223,477.475-191.576" fill="none" stroke="rgba(255,255,255,0.52)" stroke-width="30"/></g></svg>