<svg xmlns="http://www.w3.org/2000/svg" width="317" height="317" viewBox="0 0 317 317"><g transform="translate(-892 465)"><g transform="translate(892 -465)" fill="#6a397a" stroke="#c898de" stroke-width="8"><circle cx="158.5" cy="158.5" r="158.5" stroke="none"/><circle cx="158.5" cy="158.5" r="154.5" fill="none"/></g><g transform="translate(1100.859 -430)" fill="none" stroke="#f7f5f6" stroke-width="8"><ellipse cx="26" cy="26.5" rx="26" ry="26.5" stroke="none"/><ellipse cx="26" cy="26.5" rx="22" ry="22.5" fill="none"/></g><g transform="translate(948 -430)" fill="none" stroke="#f7f5f6" stroke-width="8"><ellipse cx="26" cy="26.5" rx="26" ry="26.5" stroke="none"/><ellipse cx="26" cy="26.5" rx="22" ry="22.5" fill="none"/></g><path d="M1408.826-1442.2l-12.386-91.128-10.332,94.529h-23.937v-171.138s-2.63-14,31.959-14,34.4,14,34.4,14v142" transform="translate(-269.84 1254)" fill="none" stroke="#f7f5f6" stroke-width="8"/><path d="M1381.827-1442.2l12.386-91.128,10.332,94.529h23.937v-171.138s2.63-14-31.959-14-34.4,14-34.4,14v142" transform="translate(-419.954 1254)" fill="none" stroke="#f7f5f6" stroke-width="8"/><path d="M1447.331-1589.863l-18.8,56.923,3.85,3.85,14.953-31.253Z" transform="translate(-355 1254)" fill="none" stroke="#f7f5f6" stroke-width="8"/><path d="M1428.528-1589.863l18.8,56.923-3.85,3.85-14.953-31.253Z" transform="translate(-420 1254)" fill="none" stroke="#f7f5f6" stroke-width="8"/><path d="M1428.528-1589.863l18.8,56.923-3.85,3.85-14.953-31.253Z" transform="translate(-270 1254)" fill="none" stroke="#f7f5f6" stroke-width="8"/><path d="M1447.331-1589.863l-18.8,56.923,3.85,3.85,14.953-31.253Z" transform="translate(-505 1254)" fill="none" stroke="#f7f5f6" stroke-width="8"/><path d="M1017.929-342.631h65.589" fill="none" stroke="#f7f5f6" stroke-width="3"/><path d="M5.5,0,11,9H0Z" transform="matrix(-0.035, -0.999, 0.999, -0.035, 1015.195, -336.846)" fill="#fff"/><path d="M5.5,0,11,9H0Z" transform="matrix(-0.035, 0.999, -0.999, -0.035, 1087.189, -347.84)" fill="#fff"/></g></svg>