<svg xmlns="http://www.w3.org/2000/svg" width="317" height="317" viewBox="0 0 317 317"><g transform="translate(-555 465)"><g transform="translate(555 -465)" fill="#6a397a" stroke="#c898de" stroke-width="8"><circle cx="158.5" cy="158.5" r="158.5" stroke="none"/><circle cx="158.5" cy="158.5" r="154.5" fill="none"/></g><path d="M976.844-1104.542l18.317,18.7,32.473-25.67-16.969-17.985" transform="translate(-369 692)" fill="none" stroke="#fff" stroke-width="8"/><path d="M1022.665-1104.708s11.177,8.92,16.52,21.434,3.851,28.622,3.851,28.622h-21.37s-.08-11.423-4.685-20.087-13.733-14.568-13.733-14.568Z" transform="translate(-371 691)" fill="none" stroke="#fff" stroke-width="8"/><path d="M1043.227-1039.442s9.768-1.941,17.929,3.663a15.794,15.794,0,0,1,6.715,14.755,26.219,26.219,0,0,1,18.18.192c9.851,3.738,9.223,14.761,9.223,14.761" transform="translate(-369 692)" fill="none" stroke="#fff" stroke-width="8"/><path d="M1122.612-1015.055s-2.086-9.142-15.637-11.217-18.568,6.917-18.568,6.917" transform="translate(-369 692)" fill="none" stroke="#fff" stroke-width="8"/><path d="M1025.965-1040.442s-12.814-3.006-17.418,4.128-1,17.408-1,17.408a20.035,20.035,0,0,0-19.025,4.05c-9.209,7.738-5.811,22.9-5.811,22.9s-10.734-1.772-16.226,6.72-1.743,23.249-1.743,23.249" transform="translate(-369 692)" fill="none" stroke="#fff" stroke-width="8"/><path d="M942.324-949.762s20.019-1.458,27.945,5.713,7.758,23.973,7.758,23.973,9.854-5.961,17.309,4.7,0,17.951,0,17.951,8.523-3.724,16.9,6.126,5.127,26.276,5.127,26.276.908-24.06,10-32.4,26.383-5.968,26.383-5.968,2.562-12.281,10.9-16.452,22.467-1.233,22.467-1.233" transform="translate(-369 692)" fill="none" stroke="#fff" stroke-width="8"/><path d="M1105.51-909.391s14.975-2.738,20.534,6.142a19.439,19.439,0,0,1,1.7,17.378,21.3,21.3,0,0,1,15.877,3.63,16.766,16.766,0,0,1,6.841,14.339" transform="translate(-369 692)" fill="none" stroke="#fff" stroke-width="8"/><path d="M1204.387-914.108H1159s-7.813,8.2-15.4,12.271a34.566,34.566,0,0,1-14.953,4.03" transform="translate(-369 692)" fill="none" stroke="#fff" stroke-width="8"/><path d="M1230.442-975.716h-76.127s-7.1-10.672-15.664-15.485-18.605-3.767-18.605-3.767H1042.2s-11-1.223-11,9.59,11,9.662,11,9.662h-33.82s-9,.59-9,9.419,9,9.9,9,9.9H994.263s-9,.534-9,11.085,9,11.12,9,11.12h101.846l-87.727.016s-8,.684-8,9.493a9.327,9.327,0,0,0,8,9.743H1057.6" transform="translate(-369 692)" fill="none" stroke="#fff" stroke-width="8"/></g></svg>